<svg width="140" height="29" viewBox="0 0 140 29" fill="none" xmlns="http://www.w3.org/2000/svg">
<g id="Logo-Branko">
<path id="Vector" d="M16.1833 13.8399C19.7796 13.4226 23.0301 11.4057 23.0301 7.4414C23.0301 2.71204 19.7105 0.277809 13.9011 0.277809H0V0.347359V2.08609V2.64249C1.17571 2.64249 2.00563 2.92069 2.48974 3.47708C2.5589 3.82483 2.5589 4.17257 2.5589 4.65942V23.855C2.5589 24.4114 2.5589 24.8983 2.48974 25.1765C2.07479 25.872 1.24487 26.2197 0.0691596 26.2197V26.637V28.5149H14.316C21.232 28.5149 24.8974 26.2197 24.8974 20.8644C24.7591 16.4133 21.0937 13.979 16.1833 13.8399ZM10.5814 2.29474H11.0655C13.7628 2.29474 15.5609 3.89438 15.5609 7.37185C15.5609 10.9884 13.9702 12.7271 11.1347 12.7271H10.6506V2.29474H10.5814ZM13.1403 26.4284H12.8637C11.1347 26.4284 10.5123 25.9415 10.5123 23.7159V15.0918H11.7571C15.3534 15.0918 17.0824 16.9697 17.0824 20.6558C17.0133 24.6896 15.3534 26.4284 13.1403 26.4284Z" fill="#0E0E20"/>
<path id="Vector_2" d="M25.5884 26.2202C27.594 26.2202 28.3548 25.3856 28.3548 23.16V15.6487C28.3548 14.4663 27.5249 13.7013 26.3492 13.7013H25.5192V11.2671L32.7118 9.04149H34.7175V12.1017C34.7175 13.7013 34.5791 16.066 34.5791 16.9006H34.7175C35.2707 11.0584 37.8988 8.62419 40.9418 8.62419C41.4951 8.62419 41.7717 8.62419 42.2558 8.76329V15.5096C39.7661 15.0923 35.2707 15.2314 35.2707 19.6825V23.0209C35.2707 25.1769 36.5156 26.0811 38.5212 26.0811V28.3762H25.5884V26.2202Z" fill="#0E0E20"/>
<path id="Vector_3" d="M109.688 18.7069C109.688 12.6561 114.806 8.55272 120.546 8.55272C126.563 8.55272 131.681 12.7952 131.681 18.846C131.681 24.8273 126.771 29.0002 120.892 29.0002C114.806 28.8611 109.688 24.6186 109.688 18.7069ZM124.419 21.9062C124.419 18.7069 122.759 10.5697 119.578 10.5697C117.642 10.5697 116.95 12.3084 116.95 15.6468C116.95 18.9851 118.541 26.9138 121.86 26.9138C123.659 26.8442 124.419 24.8968 124.419 21.9062Z" fill="#0E0E20"/>
<path id="Vector_4" d="M136.311 28.9316C134.375 28.9316 132.784 27.332 132.784 25.3846C132.784 23.4372 134.375 21.8376 136.311 21.8376C138.248 21.8376 139.838 23.4372 139.838 25.3846C139.838 27.332 138.179 28.9316 136.311 28.9316Z" fill="#0E0E20"/>
<path id="Vector_5" d="M107.268 22.3253L102.773 16.2746C105.055 15.0922 107.13 14.1185 109.274 11.4756V9.45872H99.1766V11.7538C100.767 11.7538 101.805 12.5189 101.805 13.7708C101.805 14.814 101.528 15.5095 99.8682 16.2746L96.5485 17.8742H96.1335V0H94.612L86.1746 2.01693V4.65981H87.0045C88.1802 4.65981 89.0101 5.2162 89.0101 6.39854V23.2295C89.0101 25.2464 88.4568 26.1506 86.6587 26.2897C84.9297 26.2201 84.2381 25.2464 84.2381 23.2295V15.1618C84.2381 10.8497 81.7484 8.83277 78.1521 8.83277C75.3857 8.83277 73.3801 10.0847 72.2735 12.9362V8.90232H70.752L62.3837 10.9193V13.5621H63.2136C64.3893 13.5621 65.2192 14.1185 65.2192 15.3009V23.2295C65.2192 25.4551 64.4585 26.2201 62.522 26.2897C61.3463 26.2897 60.5164 25.5942 60.4472 24.2727V15.0227C60.4472 10.7106 58.5107 8.62412 51.9406 8.62412C48.4134 8.62412 44.4714 9.45871 43.8489 13.0753C43.7106 14.1881 43.9181 15.2313 44.9555 15.8573C46.1312 16.6223 47.5835 16.5528 48.6901 15.7877C49.5892 15.2313 49.935 14.1881 49.7275 13.1448C49.5892 12.3102 49.2434 11.6147 48.2751 10.6411C48.8284 10.502 49.935 10.2933 50.7649 10.2933C53.5313 10.2933 53.9462 13.423 53.9462 16.6919C53.9462 17.5264 53.8079 17.5264 52.9088 17.5264C49.3125 17.6655 42.1891 18.0828 42.1891 23.7163C42.1891 29.2803 51.5948 30.8799 54.5687 25.6637C55.606 28.5152 59.1332 28.237 62.3837 28.1675H73.9333V26.1506C72.3427 26.1506 72.2043 25.1073 72.2043 23.2295V15.0227C72.481 13.7708 73.4492 12.7275 74.8324 12.7275C76.4231 12.7275 77.3221 13.5621 77.3221 15.3704V23.4381C77.3221 25.3855 77.3221 26.3592 75.5932 26.3592V28.3761H86.3821H87.1428H97.8625V26.081C96.2719 26.081 96.1335 25.316 96.1335 23.7859V18.987H96.4102L102.358 28.5848H110.934V26.2201C109.55 26.2897 108.721 24.2727 107.268 22.3253ZM53.8771 22.3949C53.9462 26.4288 48.2751 27.1938 48.2751 23.1599C48.2751 19.1261 53.1855 19.8216 53.8771 18.7783V22.3949Z" fill="#0E0E20"/>
<path id="Vector_6" d="M16.1833 13.8399C19.7796 13.4226 23.0301 11.4057 23.0301 7.4414C23.0301 2.71204 19.7105 0.277809 13.9011 0.277809H0V0.347359V2.08609V2.64249C1.17571 2.64249 2.00563 2.92069 2.48974 3.47708C2.5589 3.82483 2.5589 4.17257 2.5589 4.65942V23.855C2.5589 24.4114 2.5589 24.8983 2.48974 25.1765C2.07479 25.872 1.24487 26.2197 0.0691596 26.2197V26.637V28.5149H14.316C21.232 28.5149 24.8974 26.2197 24.8974 20.8644C24.7591 16.4133 21.0937 13.979 16.1833 13.8399ZM10.5814 2.29474H11.0655C13.7628 2.29474 15.5609 3.89438 15.5609 7.37185C15.5609 10.9884 13.9702 12.7271 11.1347 12.7271H10.6506V2.29474H10.5814ZM13.1403 26.4284H12.8637C11.1347 26.4284 10.5123 25.9415 10.5123 23.7159V15.0918H11.7571C15.3534 15.0918 17.0824 16.9697 17.0824 20.6558C17.0133 24.6896 15.3534 26.4284 13.1403 26.4284Z" fill="#0E0E20"/>
<path id="Vector_7" d="M25.5884 26.2202C27.594 26.2202 28.3548 25.3856 28.3548 23.16V15.6487C28.3548 14.4663 27.5249 13.7013 26.3492 13.7013H25.5192V11.2671L32.7118 9.04149H34.7175V12.1017C34.7175 13.7013 34.5791 16.066 34.5791 16.9006H34.7175C35.2707 11.0584 37.8988 8.62419 40.9418 8.62419C41.4951 8.62419 41.7717 8.62419 42.2558 8.76329V15.5096C39.7661 15.0923 35.2707 15.2314 35.2707 19.6825V23.0209C35.2707 25.1769 36.5156 26.0811 38.5212 26.0811V28.3762H25.5884V26.2202Z" fill="#0E0E20"/>
<path id="Vector_8" d="M109.688 18.7069C109.688 12.6561 114.806 8.55272 120.546 8.55272C126.563 8.55272 131.681 12.7952 131.681 18.846C131.681 24.8273 126.771 29.0002 120.892 29.0002C114.806 28.8611 109.688 24.6186 109.688 18.7069ZM124.419 21.9062C124.419 18.7069 122.759 10.5697 119.578 10.5697C117.642 10.5697 116.95 12.3084 116.95 15.6468C116.95 18.9851 118.541 26.9138 121.86 26.9138C123.659 26.8442 124.419 24.8968 124.419 21.9062Z" fill="#0E0E20"/>
<path id="Vector_9" d="M136.311 28.9316C134.375 28.9316 132.784 27.332 132.784 25.3846C132.784 23.4372 134.375 21.8376 136.311 21.8376C138.248 21.8376 139.838 23.4372 139.838 25.3846C139.838 27.332 138.179 28.9316 136.311 28.9316Z" fill="#0E0E20"/>
<path id="Vector_10" d="M107.268 22.3253L102.773 16.2746C105.055 15.0922 107.13 14.1185 109.274 11.4756V9.45872H99.1766V11.7538C100.767 11.7538 101.805 12.5189 101.805 13.7708C101.805 14.814 101.528 15.5095 99.8682 16.2746L96.5485 17.8742H96.1335V0H94.612L86.1746 2.01693V4.65981H87.0045C88.1802 4.65981 89.0101 5.2162 89.0101 6.39854V23.2295C89.0101 25.2464 88.4568 26.1506 86.6587 26.2897C84.9297 26.2201 84.2381 25.2464 84.2381 23.2295V15.1618C84.2381 10.8497 81.7484 8.83277 78.1521 8.83277C75.3857 8.83277 73.3801 10.0847 72.2735 12.9362V8.90232H70.752L62.3837 10.9193V13.5621H63.2136C64.3893 13.5621 65.2192 14.1185 65.2192 15.3009V23.2295C65.2192 25.4551 64.4585 26.2201 62.522 26.2897C61.3463 26.2897 60.5164 25.5942 60.4472 24.2727V15.0227C60.4472 10.7106 58.5107 8.62412 51.9406 8.62412C48.4134 8.62412 44.4714 9.45871 43.8489 13.0753C43.7106 14.1881 43.9181 15.2313 44.9555 15.8573C46.1312 16.6223 47.5835 16.5528 48.6901 15.7877C49.5892 15.2313 49.935 14.1881 49.7275 13.1448C49.5892 12.3102 49.2434 11.6147 48.2751 10.6411C48.8284 10.502 49.935 10.2933 50.7649 10.2933C53.5313 10.2933 53.9462 13.423 53.9462 16.6919C53.9462 17.5264 53.8079 17.5264 52.9088 17.5264C49.3125 17.6655 42.1891 18.0828 42.1891 23.7163C42.1891 29.2803 51.5948 30.8799 54.5687 25.6637C55.606 28.5152 59.1332 28.237 62.3837 28.1675H73.9333V26.1506C72.3427 26.1506 72.2043 25.1073 72.2043 23.2295V15.0227C72.481 13.7708 73.4492 12.7275 74.8324 12.7275C76.4231 12.7275 77.3221 13.5621 77.3221 15.3704V23.4381C77.3221 25.3855 77.3221 26.3592 75.5932 26.3592V28.3761H86.3821H87.1428H97.8625V26.081C96.2719 26.081 96.1335 25.316 96.1335 23.7859V18.987H96.4102L102.358 28.5848H110.934V26.2201C109.55 26.2897 108.721 24.2727 107.268 22.3253ZM53.8771 22.3949C53.9462 26.4288 48.2751 27.1938 48.2751 23.1599C48.2751 19.1261 53.1855 19.8216 53.8771 18.7783V22.3949Z" fill="#0E0E20"/>
</g>
</svg>
